<svg id="Layer_1" data-name="Layer 1" xmlns="http://www.w3.org/2000/svg" viewBox="0 0 61.96 89.82"><defs><style>.cls-1{fill:#f2f2f2;}.cls-2{fill:#848484;}.cls-3{fill:#6ec4a7;}.cls-4{fill:#95aec2;}</style></defs><path class="cls-1" d="M77.22,9.94a2.5,2.5,0,0,0-2.5-2.5H17.87a2.5,2.5,0,0,0-2.5,2.5V88a2.5,2.5,0,0,0,2.5,2.51H66.62A10.73,10.73,0,0,0,77.33,79.82Z" transform="translate(-15.37 -0.72)"/><path class="cls-2" d="M31.46,3.07a2.49,2.49,0,0,0-5,0h0V14.48a2.51,2.51,0,1,0,5,0V3.07Z" transform="translate(-15.37 -0.72)"/><path class="cls-2" d="M48.83,3.07a2.49,2.49,0,0,0-5,0h0V14.48a2.51,2.51,0,1,0,5,0V3.07Z" transform="translate(-15.37 -0.72)"/><path class="cls-2" d="M66.21,3.07a2.49,2.49,0,0,0-5,0h0V14.48a2.51,2.51,0,0,0,5,0V3.07Z" transform="translate(-15.37 -0.72)"/><path class="cls-3" d="M62.3,36.94H31a2.51,2.51,0,1,1,0-5H62.3a2.51,2.51,0,1,1,0,5Z" transform="translate(-15.37 -0.72)"/><path class="cls-4" d="M62.3,51.26H31a2.51,2.51,0,1,1,0-5H62.3a2.51,2.51,0,1,1,0,5Z" transform="translate(-15.37 -0.72)"/><path class="cls-3" d="M39.6,65.32H31a2.51,2.51,0,1,1,0-5H39.6a2.51,2.51,0,0,1,0,5Z" transform="translate(-15.37 -0.72)"/><path class="cls-4" d="M54.42,65.32H50.69a2.51,2.51,0,1,1,0-5h3.73a2.51,2.51,0,1,1,0,5Z" transform="translate(-15.37 -0.72)"/></svg>